# xmcd CD database file
#
# Track frame offsets:
#	150
#	19559
#	38881
#	61096
#	82163
#	105242
#	124789
#	147741
#	170323
#	190205
#	214585
#	240452
#
# Disc length: 3507 seconds
#
# Revision: 1
# Processed by: cddbd v1.5.1PL0 Copyright (c) Steve Scherf et al.
# Submitted via: CDex 1.51
#
DISCID=9c0db10c
DTITLE=愛内里菜 - Single Collection
DYEAR=2003
DGENRE=JPop
TTITLE0=FULL JUMP
TTITLE1=I can't stop my love for you
TTITLE2=恋はスリル、ショック、サスペンス
TTITLE3=Sincerely Yours
TTITLE4=Forever You 〜永遠に君と〜
TTITLE5=NAVY BLUE
TTITLE6=風のない海で抱きしめて
TTITLE7=Close To Your Heart
TTITLE8=It's crazy for you
TTITLE9=Run up
TTITLE10=Deep Freeze
TTITLE11=空気
EXTD=YEAR: 2003
EXTT0=
EXTT1=
EXTT2=
EXTT3=
EXTT4=
EXTT5=
EXTT6=
EXTT7=
EXTT8=
EXTT9=
EXTT10=
EXTT11=
PLAYORDER=
